<svg version="1.1" id="Layer_1" xmlns="http://www.w3.org/2000/svg" xmlns:xlink="http://www.w3.org/1999/xlink" x="0px" y="0px"
	 width="100%" viewBox="0 0 608 694" enable-background="new 0 0 608 694" xml:space="preserve">
<path fill="none" opacity="1.000000" stroke="#1f3a5f" stroke-linecap="round" stroke-linejoin="round" stroke-width="16.000000"
	d="
M497.000000,177.500000 
	C495.894531,157.341095 496.783600,137.165726 496.506805,116.999908 
	C496.458771,113.500565 496.266357,109.981277 496.545044,106.503609 
	C497.296234,97.129738 489.734375,85.691673 475.499542,85.543030 
	C458.168091,85.362045 440.833344,85.500000 423.500000,85.500000 
	C378.166656,85.500000 332.833099,85.565193 287.500427,85.389465 
	C283.400574,85.373573 279.642609,88.205246 276.072235,87.234344 
	C272.360474,86.224991 268.801758,85.488777 265.000000,85.490082 
	C220.000000,85.505493 174.999176,85.652016 130.000504,85.407547 
	C116.465912,85.334007 107.292473,95.546677 107.315880,108.000343 
	C107.599762,258.999817 107.571861,410.000092 107.367310,560.999817 
	C107.350441,573.447693 117.657608,582.581604 129.000137,582.551331 
	C175.166473,582.428101 221.333344,582.488159 267.499969,582.524170 
	C270.935150,582.526855 274.100037,580.405396 277.000000,580.405396 
	C279.899963,580.405396 283.064880,582.525635 286.500000,582.523865 
	C349.333344,582.491211 412.166748,582.445007 474.999908,582.550598 
	C486.342133,582.569702 496.659454,573.448242 496.634460,560.999756 
	C496.405762,447.166840 496.500000,333.333344 496.500000,219.500000 
	C496.500000,214.500000 496.500000,209.500000 496.500000,204.500000 
"/>
<path fill="none" opacity="1.000000" stroke="#1f3a5f" stroke-linecap="round" stroke-linejoin="round" stroke-width="17.000000"
	d="
M277.000000,88.500000 
	C277.000000,252.166672 277.000000,415.833344 277.000000,579.500000 
"/>
<path fill="none" opacity="1.000000" stroke="#1f3a5f" stroke-linecap="round" stroke-linejoin="round" stroke-width="16.000000"
	d="
M189.500000,435.000000 
	C191.666672,435.166656 193.832809,435.469360 196.000092,435.477509 
	C208.333237,435.523895 220.667175,435.567780 232.999817,435.475220 
	C240.720230,435.417328 244.471329,431.568420 244.496323,424.000000 
	C244.515030,418.333405 244.568558,412.665619 244.482880,407.000244 
	C244.372330,399.690155 241.166092,396.508453 234.000000,396.505188 
	C206.166672,396.492432 178.333328,396.493408 150.500000,396.504791 
	C143.847153,396.507538 140.980057,399.065582 140.017288,406.002411 
	C139.070389,412.824738 139.095184,419.684235 140.037750,426.494781 
	C140.883698,432.607208 143.814346,435.277008 150.001648,435.435486 
	C153.826065,435.533386 157.666672,435.000000 161.500000,434.750000 
"/>
<path fill="none" opacity="1.000000" stroke="#1f3a5f" stroke-linecap="round" stroke-linejoin="round" stroke-width="15.000000"
	d="
M228.000000,228.000000 
	C238.752060,223.366943 241.392670,213.188065 243.274857,203.456451 
	C245.970963,189.516632 243.026825,176.241302 234.507889,164.494278 
	C221.567856,146.650848 203.833252,139.260498 182.544785,143.239594 
	C161.432785,147.185730 147.481461,160.307846 142.035065,181.509003 
	C138.628418,194.770020 139.941879,207.541412 146.997574,219.501434 
	C148.401947,221.881989 163.086029,237.098785 165.506485,238.488693 
	C183.327805,248.722244 201.128479,248.600159 219.028015,238.549911 
	C223.270279,236.167969 226.320236,233.021545 228.000000,228.500000 
"/>
<path fill="none" opacity="1.000000" stroke="#1f3a5f" stroke-linecap="round" stroke-linejoin="round" stroke-width="16.000000"
	d="
M457.500000,467.500000 
	C410.166656,467.500000 362.833344,467.500000 315.500000,467.500000 
"/>
<path fill="none" opacity="1.000000" stroke="#1f3a5f" stroke-linecap="round" stroke-linejoin="round" stroke-width="16.000000"
	d="
M457.500000,421.500000 
	C410.166656,421.500000 362.833344,421.500000 315.500000,421.500000 
"/>
<path fill="none" opacity="1.000000" stroke="#1f3a5f" stroke-linecap="round" stroke-linejoin="round" stroke-width="16.000000"
	d="
M457.500000,329.500000 
	C410.166656,329.500000 362.833344,329.500000 315.500000,329.500000 
"/>
<path fill="none" opacity="1.000000" stroke="#1f3a5f" stroke-linecap="round" stroke-linejoin="round" stroke-width="16.000000"
	d="
M457.500000,283.250000 
	C455.833344,283.333344 454.166687,283.488953 452.500000,283.489441 
	C406.833344,283.502625 361.166656,283.500000 315.500000,283.500000 
"/>
<path fill="none" opacity="1.000000" stroke="#1f3a5f" stroke-linecap="round" stroke-linejoin="round" stroke-width="15.000000"
	d="
M373.000000,174.000000 
	C374.048798,169.689697 371.510712,167.723343 367.996094,166.511292 
	C356.624329,162.589645 345.814728,163.436554 336.558411,171.566513 
	C327.331238,179.670898 324.342194,190.180359 327.582458,201.977341 
	C330.708893,213.359772 338.034515,220.858078 350.005676,222.967789 
	C357.864227,224.352707 365.400513,224.046448 372.069092,218.584351 
	C374.346710,216.718811 375.558899,214.826599 375.500000,212.000000 
"/>
<path fill="none" opacity="1.000000" stroke="#1f3a5f" stroke-linecap="round" stroke-linejoin="round" stroke-width="16.000000"
	d="
M390.000000,375.500000 
	C365.166656,375.500000 340.333344,375.500000 315.500000,375.500000 
"/>
<path fill="none" opacity="1.000000" stroke="#1f3a5f" stroke-linecap="round" stroke-linejoin="round" stroke-width="16.000000"
	d="
M389.000000,514.750061 
	C366.166656,514.666687 343.333374,514.577759 320.499969,514.511536 
	C318.833557,514.506714 317.166656,514.666687 315.500000,514.750000 
"/>
<path fill="none" opacity="1.000000" stroke="#1f3a5f" stroke-linecap="round" stroke-linejoin="round" stroke-width="15.000000"
	d="
M206.000000,207.000000 
	C206.833328,204.833328 207.439667,202.543365 208.538345,200.520828 
	C214.003296,190.460602 207.710617,178.873581 198.482864,175.547562 
	C192.060547,173.232712 185.847351,173.945511 180.520691,178.524078 
	C175.025574,183.247437 172.586639,189.345993 174.107391,196.477097 
	C174.811310,199.777985 176.051041,203.345612 178.153549,205.872238 
	C180.871155,209.138092 185.367920,209.773315 189.500748,210.495743 
	C195.362869,211.520447 200.528473,208.656601 206.000000,207.500000 
"/>
<path fill="none" opacity="1.000000" stroke="#1f3a5f" stroke-linecap="round" stroke-linejoin="round" stroke-width="15.000000"
	d="
M451.750000,162.000000 
	C452.194122,163.043961 451.890015,163.965851 451.535797,165.012115 
	C447.479614,176.993088 443.479095,188.993088 439.510406,201.003448 
	C437.943024,205.746750 435.960571,210.273987 431.944702,213.429626 
	C430.655548,214.442642 431.042664,215.457993 431.029144,216.500381 
	C430.964294,221.499542 431.000000,226.500000 431.000000,231.500000 
"/>
<path fill="none" opacity="1.000000" stroke="#1f3a5f" stroke-linecap="round" stroke-linejoin="round" stroke-width="15.000000"
	d="
M409.250031,163.500000 
	C414.000031,177.666656 418.582886,191.893265 423.625214,205.955124 
	C424.790741,209.205521 427.225800,212.156586 430.500000,214.000000 
"/>
<path fill="none" opacity="1.000000" stroke="#1f3a5f" stroke-linecap="round" stroke-linejoin="round" stroke-width="16.000000"
	d="
M150.000000,316.500000 
	C141.816437,318.311432 139.474899,321.046478 139.546753,329.499603 
	C139.594910,335.164612 138.991562,340.840912 139.967545,346.505585 
	C141.030396,352.674438 143.952148,355.484314 150.000015,355.489441 
	C178.166656,355.513245 206.333496,355.447998 234.499863,355.540039 
	C240.789230,355.560638 244.198395,352.532745 244.456329,345.498413 
	C244.669937,339.672882 244.515121,333.833282 244.496246,328.000000 
	C244.471741,320.431580 240.720352,316.612244 232.999741,316.521545 
	C224.834198,316.425598 216.666672,316.500000 208.500000,316.500000 
	C189.166672,316.500000 169.833328,316.500000 150.500000,316.500000 
"/>
<path fill="none" opacity="1.000000" stroke="#1f3a5f" stroke-linecap="round" stroke-linejoin="round" stroke-width="16.000000"
	d="
M150.000000,475.500000 
	C141.816437,477.311432 139.474884,480.046478 139.546738,488.499603 
	C139.594894,494.164612 138.991562,499.840912 139.967560,505.505585 
	C141.030396,511.674438 143.952148,514.484375 150.000015,514.489441 
	C178.166656,514.513306 206.333496,514.449036 234.499863,514.541687 
	C240.353668,514.560913 244.077591,512.002258 244.428360,504.996399 
	C244.761307,498.346436 244.637115,491.662872 244.453812,485.001282 
	C244.322433,480.226898 241.180984,476.825836 236.494415,476.033020 
	C234.360626,475.671997 232.166855,475.524353 229.999969,475.521637 
	C203.500015,475.488342 177.000000,475.500000 150.500000,475.500000 
"/>
</svg>